<?xml version="1.0" standalone="no"?>
<!DOCTYPE svg PUBLIC "-//W3C//DTD SVG 20010904//EN"
 "http://www.w3.org/TR/2001/REC-SVG-20010904/DTD/svg10.dtd">
<svg version="1.0" xmlns="http://www.w3.org/2000/svg"
 width="1530.000000pt" height="1530.000000pt" viewBox="0 0 1530.000000 1530.000000"
 preserveAspectRatio="xMidYMid meet">
<metadata>
Created by potrace 1.14, written by Peter Selinger 2001-2017
</metadata>
<g transform="translate(0.000000,1530.000000) scale(0.100000,-0.100000)"
fill="#000000" stroke="none">
<path d="M2880 9776 l0 -5524 -40 -163 c-40 -168 -117 -573 -144 -759 -68
-470 -53 -882 45 -1250 68 -257 193 -509 358 -725 68 -89 244 -267 346 -350
508 -411 1266 -671 2260 -775 368 -38 528 -45 1100 -45 642 0 943 15 1605 80
242 24 796 91 980 118 l85 13 -55 13 c-134 32 -370 141 -515 237 -282 186
-446 421 -486 696 -18 124 -1 316 37 423 10 28 -76 -55 -130 -125 -24 -30 -62
-88 -85 -128 -24 -39 -46 -72 -49 -72 -6 0 6 164 19 255 66 440 332 912 710
1255 108 99 108 107 -4 89 -77 -12 -193 -68 -237 -114 -55 -57 -57 -49 -18 75
78 246 241 419 448 476 91 25 292 25 425 0 84 -15 275 -67 338 -91 16 -7 17
281 17 5954 l0 5961 -3505 0 -3505 0 0 -5524z m6959 1802 c0 -2145 -4 -3665
-9 -3653 -5 11 -35 88 -66 170 -142 375 -338 766 -581 1158 l-104 167 -43 -57
c-82 -111 -204 -206 -473 -368 -562 -340 -762 -517 -942 -830 -240 -419 -299
-1056 -165 -1795 148 -821 556 -1796 1144 -2737 l107 -171 -31 -6 c-142 -27
-493 -155 -716 -263 l-135 -65 -55 12 c-465 101 -876 332 -1126 633 -234 282
-370 649 -374 1011 l0 40 -26 -35 c-78 -102 -177 -362 -225 -592 -12 -58 -26
-104 -30 -101 -11 6 -74 202 -103 319 -64 253 -90 492 -89 805 2 512 96 979
304 1507 58 147 214 471 299 620 22 40 39 73 37 73 -13 0 -139 -46 -172 -62
-130 -66 -278 -211 -364 -356 -30 -51 -56 -92 -58 -92 -14 0 30 345 63 500
194 901 716 1535 1489 1810 50 17 185 56 300 85 254 65 413 119 561 189 176
85 212 113 515 404 l57 54 46 -47 c62 -62 154 -105 225 -105 l54 0 -6 50 c-9
78 -47 207 -71 242 -12 18 -32 35 -46 39 -39 11 -234 8 -350 -4 l-105 -12 -89
110 c-49 61 -126 153 -171 205 -44 52 -84 100 -88 107 -4 7 30 -5 75 -27 91
-42 312 -123 368 -135 34 -7 34 -7 19 11 -101 118 -289 369 -397 530 -208 311
-288 491 -326 734 -46 290 -26 471 79 720 99 233 447 915 847 1659 92 173 166
316 163 319 -9 9 -210 -16 -341 -43 -329 -67 -693 -213 -983 -394 -63 -39
-115 -70 -117 -68 -2 2 59 286 135 633 77 346 139 630 138 631 -6 6 -158 -52
-239 -91 -237 -113 -485 -289 -753 -533 -103 -94 -189 -183 -390 -401 l-41
-44 -139 12 c-258 23 -549 2 -773 -55 -181 -45 -288 -100 -548 -280 -163 -114
-273 -172 -358 -189 -70 -15 -299 -6 -499 19 -66 8 -181 15 -257 15 -167 0
-177 -5 -214 -115 -27 -82 -52 -212 -42 -222 3 -4 29 -6 56 -6 66 1 162 47
221 106 l46 46 144 -136 c217 -205 260 -237 404 -308 159 -79 331 -138 592
-204 286 -72 457 -136 648 -243 303 -170 550 -402 747 -703 186 -283 316 -606
388 -964 17 -80 30 -155 30 -165 0 -18 -6 -19 -96 -12 -96 7 -97 7 -147 51
-73 64 -257 155 -313 155 -7 0 13 -45 45 -102 64 -115 65 -112 -27 -120 l-52
-5 -109 121 c-341 377 -693 664 -1021 830 -118 60 -276 124 -285 115 -2 -2 59
-287 136 -633 76 -346 137 -631 135 -634 -3 -2 -37 18 -78 45 -302 203 -700
363 -1068 432 -133 25 -290 44 -297 38 -3 -3 62 -131 145 -284 381 -708 723
-1375 841 -1637 78 -176 107 -274 120 -414 17 -178 -13 -424 -71 -597 -72
-211 -380 -691 -639 -995 -21 -24 -36 -46 -34 -48 8 -8 284 92 383 139 84 39
99 44 85 26 -80 -101 -265 -317 -271 -317 -4 0 -65 11 -136 25 -376 74 -752
74 -1084 -1 -63 -14 -121 -28 -128 -31 -12 -4 -14 629 -14 4226 l0 4231 3455
0 3455 0 -1 -3672z m-939 2641 c0 -6 -80 -156 -179 -333 -215 -387 -389 -711
-508 -946 -101 -201 -109 -208 -169 -143 -51 55 -188 262 -235 355 -69 137
-102 250 -103 353 -1 124 23 168 142 258 247 186 519 318 876 422 165 48 176
50 176 34z m-2652 -780 c63 -36 192 -159 216 -207 24 -47 15 -62 -37 -62 -105
0 -347 90 -381 142 -27 41 -1 103 59 140 43 26 82 22 143 -13z m-2214 -2663
c321 -91 568 -201 805 -359 151 -101 215 -166 236 -241 49 -170 -75 -482 -307
-774 -45 -56 -54 -63 -81 -60 -29 3 -36 13 -132 203 -125 248 -224 432 -477
887 -109 197 -198 362 -198 368 0 16 23 12 154 -24z m2639 -737 c41 -21 67
-52 78 -92 9 -35 8 -42 -13 -64 -70 -75 -371 -168 -422 -130 -18 13 -18 15 0
53 25 52 148 174 215 213 56 32 105 39 142 20z"/>
<path d="M6824 6775 c-10 -69 0 -353 13 -366 18 -18 26 42 26 191 0 139 -8
220 -23 220 -5 0 -12 -20 -16 -45z"/>
<path d="M7214 6015 c-14 -32 -11 -382 3 -396 20 -20 28 35 26 201 -1 161 -12
234 -29 195z"/>
<path d="M6664 5385 c-10 -70 0 -353 13 -366 18 -18 27 48 27 191 0 133 -10
220 -24 220 -5 0 -12 -20 -16 -45z"/>
</g>
</svg>
